<svg class="main-svg" xmlns="http://www.w3.org/2000/svg" xmlns:xlink="http://www.w3.org/1999/xlink" width="700" height="500" style="" viewBox="0 0 700 500"><rect x="0" y="0" width="700" height="500" style="fill: rgb(255, 255, 255); fill-opacity: 1;"/><defs id="defs-1d460b"><g class="clips"><clipPath id="clip1d460bxyplot" class="plotclip"><rect width="404" height="320"/></clipPath><clipPath class="axesclip" id="clip1d460bx"><rect x="80" y="0" width="404" height="500"/></clipPath><clipPath class="axesclip" id="clip1d460by"><rect x="0" y="100" width="700" height="320"/></clipPath><clipPath class="axesclip" id="clip1d460bxy"><rect x="80" y="100" width="404" height="320"/></clipPath></g><g class="gradients"/><g class="patterns"/></defs><g class="bglayer"><rect class="bg" x="80" y="100" width="404" height="320" style="fill: rgb(229, 236, 246); fill-opacity: 1; stroke-width: 0;"/></g><g class="layer-below"><g class="imagelayer"/><g class="shapelayer"/></g><g class="cartesianlayer"><g class="subplot xy"><g class="layer-subplot"><g class="shapelayer"/><g class="imagelayer"/></g><g class="minor-gridlayer"><g class="x"/><g class="y"/></g><g class="gridlayer"><g class="x"/><g class="y"><path class="ygrid crisp" transform="translate(0,382.47)" d="M80,0h404" style="stroke: rgb(255, 255, 255); stroke-opacity: 1; stroke-width: 1px;"/><path class="ygrid crisp" transform="translate(0,344.94)" d="M80,0h404" style="stroke: rgb(255, 255, 255); stroke-opacity: 1; stroke-width: 1px;"/><path class="ygrid crisp" transform="translate(0,307.40999999999997)" d="M80,0h404" style="stroke: rgb(255, 255, 255); stroke-opacity: 1; stroke-width: 1px;"/><path class="ygrid crisp" transform="translate(0,269.88)" d="M80,0h404" style="stroke: rgb(255, 255, 255); stroke-opacity: 1; stroke-width: 1px;"/><path class="ygrid crisp" transform="translate(0,232.35)" d="M80,0h404" style="stroke: rgb(255, 255, 255); stroke-opacity: 1; stroke-width: 1px;"/><path class="ygrid crisp" transform="translate(0,194.81)" d="M80,0h404" style="stroke: rgb(255, 255, 255); stroke-opacity: 1; stroke-width: 1px;"/><path class="ygrid crisp" transform="translate(0,157.28)" d="M80,0h404" style="stroke: rgb(255, 255, 255); stroke-opacity: 1; stroke-width: 1px;"/><path class="ygrid crisp" transform="translate(0,119.75)" d="M80,0h404" style="stroke: rgb(255, 255, 255); stroke-opacity: 1; stroke-width: 1px;"/></g></g><g class="zerolinelayer"><path class="yzl zl crisp" transform="translate(0,420)" d="M80,0h404" style="stroke: rgb(255, 255, 255); stroke-opacity: 1; stroke-width: 2px;"/></g><g class="layer-between"><g class="shapelayer"/><g class="imagelayer"/></g><path class="xlines-below"/><path class="ylines-below"/><g class="overlines-below"/><g class="xaxislayer-below"/><g class="yaxislayer-below"/><g class="overaxes-below"/><g class="overplot"><g class="xy" transform="translate(80,100)" clip-path="url(#clip1d460bxyplot)"><g class="barlayer mlayer"><g class="trace bars" shape-rendering="crispEdges" style="opacity: 0.75;"><g class="points"><g class="point"><path d="M0,320V308.74H10.1V320Z" style="vector-effect: none; opacity: 1; stroke-width: 0px; fill: rgb(99, 110, 250); fill-opacity: 1;"/></g><g class="point"><path d="M10.1,320V282.47H20.2V320Z" style="vector-effect: none; opacity: 1; stroke-width: 0px; fill: rgb(99, 110, 250); fill-opacity: 1;"/></g><g class="point"><path d="M20.2,320V244.94H30.3V320Z" style="vector-effect: none; opacity: 1; stroke-width: 0px; fill: rgb(99, 110, 250); fill-opacity: 1;"/></g><g class="point"><path d="M30.3,320V184.89H40.4V320Z" style="vector-effect: none; opacity: 1; stroke-width: 0px; fill: rgb(99, 110, 250); fill-opacity: 1;"/></g><g class="point"><path d="M40.4,320V177.38H50.5V320Z" style="vector-effect: none; opacity: 1; stroke-width: 0px; fill: rgb(99, 110, 250); fill-opacity: 1;"/></g><g class="point"><path d="M50.5,320V113.58H60.6V320Z" style="vector-effect: none; opacity: 1; stroke-width: 0px; fill: rgb(99, 110, 250); fill-opacity: 1;"/></g><g class="point"><path d="M60.6,320V106.07H70.7V320Z" style="vector-effect: none; opacity: 1; stroke-width: 0px; fill: rgb(99, 110, 250); fill-opacity: 1;"/></g><g class="point"><path d="M70.7,320V94.81H80.8V320Z" style="vector-effect: none; opacity: 1; stroke-width: 0px; fill: rgb(99, 110, 250); fill-opacity: 1;"/></g><g class="point"><path d="M80.8,320V61.04H90.9V320Z" style="vector-effect: none; opacity: 1; stroke-width: 0px; fill: rgb(99, 110, 250); fill-opacity: 1;"/></g><g class="point"><path d="M90.9,320V49.78H101V320Z" style="vector-effect: none; opacity: 1; stroke-width: 0px; fill: rgb(99, 110, 250); fill-opacity: 1;"/></g><g class="point"><path d="M101,320V121.09H111.1V320Z" style="vector-effect: none; opacity: 1; stroke-width: 0px; fill: rgb(99, 110, 250); fill-opacity: 1;"/></g><g class="point"><path d="M111.1,320V61.04H121.2V320Z" style="vector-effect: none; opacity: 1; stroke-width: 0px; fill: rgb(99, 110, 250); fill-opacity: 1;"/></g><g class="point"><path d="M121.2,320V102.32H131.3V320Z" style="vector-effect: none; opacity: 1; stroke-width: 0px; fill: rgb(99, 110, 250); fill-opacity: 1;"/></g><g class="point"><path d="M131.3,320V143.6H141.4V320Z" style="vector-effect: none; opacity: 1; stroke-width: 0px; fill: rgb(99, 110, 250); fill-opacity: 1;"/></g><g class="point"><path d="M141.4,320V166.12H151.5V320Z" style="vector-effect: none; opacity: 1; stroke-width: 0px; fill: rgb(99, 110, 250); fill-opacity: 1;"/></g><g class="point"><path d="M151.5,320V196.15H161.6V320Z" style="vector-effect: none; opacity: 1; stroke-width: 0px; fill: rgb(99, 110, 250); fill-opacity: 1;"/></g><g class="point"><path d="M161.6,320V222.42H171.7V320Z" style="vector-effect: none; opacity: 1; stroke-width: 0px; fill: rgb(99, 110, 250); fill-opacity: 1;"/></g><g class="point"><path d="M171.7,320V199.9H181.8V320Z" style="vector-effect: none; opacity: 1; stroke-width: 0px; fill: rgb(99, 110, 250); fill-opacity: 1;"/></g><g class="point"><path d="M181.8,320V226.17H191.9V320Z" style="vector-effect: none; opacity: 1; stroke-width: 0px; fill: rgb(99, 110, 250); fill-opacity: 1;"/></g><g class="point"><path d="M191.9,320V218.67H202V320Z" style="vector-effect: none; opacity: 1; stroke-width: 0px; fill: rgb(99, 110, 250); fill-opacity: 1;"/></g><g class="point"><path d="M202,320V252.44H212.1V320Z" style="vector-effect: none; opacity: 1; stroke-width: 0px; fill: rgb(99, 110, 250); fill-opacity: 1;"/></g><g class="point"><path d="M212.1,320V278.72H222.2V320Z" style="vector-effect: none; opacity: 1; stroke-width: 0px; fill: rgb(99, 110, 250); fill-opacity: 1;"/></g><g class="point"><path d="M222.2,320V248.69H232.3V320Z" style="vector-effect: none; opacity: 1; stroke-width: 0px; fill: rgb(99, 110, 250); fill-opacity: 1;"/></g><g class="point"><path d="M232.3,320V259.95H242.4V320Z" style="vector-effect: none; opacity: 1; stroke-width: 0px; fill: rgb(99, 110, 250); fill-opacity: 1;"/></g><g class="point"><path d="M242.4,320V297.48H252.5V320Z" style="vector-effect: none; opacity: 1; stroke-width: 0px; fill: rgb(99, 110, 250); fill-opacity: 1;"/></g><g class="point"><path d="M252.5,320V244.94H262.6V320Z" style="vector-effect: none; opacity: 1; stroke-width: 0px; fill: rgb(99, 110, 250); fill-opacity: 1;"/></g><g class="point"><path d="M262.6,320V267.46H272.7V320Z" style="vector-effect: none; opacity: 1; stroke-width: 0px; fill: rgb(99, 110, 250); fill-opacity: 1;"/></g><g class="point"><path d="M272.7,320V282.47H282.8V320Z" style="vector-effect: none; opacity: 1; stroke-width: 0px; fill: rgb(99, 110, 250); fill-opacity: 1;"/></g><g class="point"><path d="M282.8,320V267.46H292.9V320Z" style="vector-effect: none; opacity: 1; stroke-width: 0px; fill: rgb(99, 110, 250); fill-opacity: 1;"/></g><g class="point"><path d="M292.9,320V286.22H303V320Z" style="vector-effect: none; opacity: 1; stroke-width: 0px; fill: rgb(99, 110, 250); fill-opacity: 1;"/></g><g class="point"><path d="M303,320V297.48H313.1V320Z" style="vector-effect: none; opacity: 1; stroke-width: 0px; fill: rgb(99, 110, 250); fill-opacity: 1;"/></g><g class="point"><path d="M313.1,320V304.99H323.2V320Z" style="vector-effect: none; opacity: 1; stroke-width: 0px; fill: rgb(99, 110, 250); fill-opacity: 1;"/></g><g class="point"><path d="M323.2,320V293.73H333.3V320Z" style="vector-effect: none; opacity: 1; stroke-width: 0px; fill: rgb(99, 110, 250); fill-opacity: 1;"/></g><g class="point"><path d="M333.3,320V312.49H343.4V320Z" style="vector-effect: none; opacity: 1; stroke-width: 0px; fill: rgb(99, 110, 250); fill-opacity: 1;"/></g><g class="point"><path d="M343.4,320V312.49H353.5V320Z" style="vector-effect: none; opacity: 1; stroke-width: 0px; fill: rgb(99, 110, 250); fill-opacity: 1;"/></g><g class="point"><path d="M353.5,320V316.25H363.6V320Z" style="vector-effect: none; opacity: 1; stroke-width: 0px; fill: rgb(99, 110, 250); fill-opacity: 1;"/></g><g class="point"><path d="M363.6,320V301.23H373.7V320Z" style="vector-effect: none; opacity: 1; stroke-width: 0px; fill: rgb(99, 110, 250); fill-opacity: 1;"/></g><g class="point"><path d="M373.7,320V312.49H383.8V320Z" style="vector-effect: none; opacity: 1; stroke-width: 0px; fill: rgb(99, 110, 250); fill-opacity: 1;"/></g><g class="point"><path d="M383.8,320V316.25H393.9V320Z" style="vector-effect: none; opacity: 1; stroke-width: 0px; fill: rgb(99, 110, 250); fill-opacity: 1;"/></g><g class="point"><path d="M393.9,320V312.49H404V320Z" style="vector-effect: none; opacity: 1; stroke-width: 0px; fill: rgb(99, 110, 250); fill-opacity: 1;"/></g></g></g><g class="trace bars" shape-rendering="crispEdges" style="opacity: 0.75;"><g class="points"><g class="point"><path d="M0,320V289.98H10.1V320Z" style="vector-effect: none; opacity: 1; stroke-width: 0px; fill: rgb(239, 85, 59); fill-opacity: 1;"/></g><g class="point"><path d="M10.1,320V229.93H20.2V320Z" style="vector-effect: none; opacity: 1; stroke-width: 0px; fill: rgb(239, 85, 59); fill-opacity: 1;"/></g><g class="point"><path d="M20.2,320V177.38H30.3V320Z" style="vector-effect: none; opacity: 1; stroke-width: 0px; fill: rgb(239, 85, 59); fill-opacity: 1;"/></g><g class="point"><path d="M30.3,320V128.59H40.4V320Z" style="vector-effect: none; opacity: 1; stroke-width: 0px; fill: rgb(239, 85, 59); fill-opacity: 1;"/></g><g class="point"><path d="M40.4,320V98.57H50.5V320Z" style="vector-effect: none; opacity: 1; stroke-width: 0px; fill: rgb(239, 85, 59); fill-opacity: 1;"/></g><g class="point"><path d="M50.5,320V79.8H60.6V320Z" style="vector-effect: none; opacity: 1; stroke-width: 0px; fill: rgb(239, 85, 59); fill-opacity: 1;"/></g><g class="point"><path d="M60.6,320V79.8H70.7V320Z" style="vector-effect: none; opacity: 1; stroke-width: 0px; fill: rgb(239, 85, 59); fill-opacity: 1;"/></g><g class="point"><path d="M70.7,320V16H80.8V320Z" style="vector-effect: none; opacity: 1; stroke-width: 0px; fill: rgb(239, 85, 59); fill-opacity: 1;"/></g><g class="point"><path d="M80.8,320V98.57H90.9V320Z" style="vector-effect: none; opacity: 1; stroke-width: 0px; fill: rgb(239, 85, 59); fill-opacity: 1;"/></g><g class="point"><path d="M90.9,320V31.01H101V320Z" style="vector-effect: none; opacity: 1; stroke-width: 0px; fill: rgb(239, 85, 59); fill-opacity: 1;"/></g><g class="point"><path d="M101,320V53.53H111.1V320Z" style="vector-effect: none; opacity: 1; stroke-width: 0px; fill: rgb(239, 85, 59); fill-opacity: 1;"/></g><g class="point"><path d="M111.1,320V121.09H121.2V320Z" style="vector-effect: none; opacity: 1; stroke-width: 0px; fill: rgb(239, 85, 59); fill-opacity: 1;"/></g><g class="point"><path d="M121.2,320V139.85H131.3V320Z" style="vector-effect: none; opacity: 1; stroke-width: 0px; fill: rgb(239, 85, 59); fill-opacity: 1;"/></g><g class="point"><path d="M131.3,320V154.86H141.4V320Z" style="vector-effect: none; opacity: 1; stroke-width: 0px; fill: rgb(239, 85, 59); fill-opacity: 1;"/></g><g class="point"><path d="M141.4,320V192.4H151.5V320Z" style="vector-effect: none; opacity: 1; stroke-width: 0px; fill: rgb(239, 85, 59); fill-opacity: 1;"/></g><g class="point"><path d="M151.5,320V203.65H161.6V320Z" style="vector-effect: none; opacity: 1; stroke-width: 0px; fill: rgb(239, 85, 59); fill-opacity: 1;"/></g><g class="point"><path d="M161.6,320V229.93H171.7V320Z" style="vector-effect: none; opacity: 1; stroke-width: 0px; fill: rgb(239, 85, 59); fill-opacity: 1;"/></g><g class="point"><path d="M171.7,320V222.42H181.8V320Z" style="vector-effect: none; opacity: 1; stroke-width: 0px; fill: rgb(239, 85, 59); fill-opacity: 1;"/></g><g class="point"><path d="M181.8,320V229.93H191.9V320Z" style="vector-effect: none; opacity: 1; stroke-width: 0px; fill: rgb(239, 85, 59); fill-opacity: 1;"/></g><g class="point"><path d="M191.9,320V256.2H202V320Z" style="vector-effect: none; opacity: 1; stroke-width: 0px; fill: rgb(239, 85, 59); fill-opacity: 1;"/></g><g class="point"><path d="M202,320V267.46H212.1V320Z" style="vector-effect: none; opacity: 1; stroke-width: 0px; fill: rgb(239, 85, 59); fill-opacity: 1;"/></g><g class="point"><path d="M212.1,320V271.21H222.2V320Z" style="vector-effect: none; opacity: 1; stroke-width: 0px; fill: rgb(239, 85, 59); fill-opacity: 1;"/></g><g class="point"><path d="M222.2,320V248.69H232.3V320Z" style="vector-effect: none; opacity: 1; stroke-width: 0px; fill: rgb(239, 85, 59); fill-opacity: 1;"/></g><g class="point"><path d="M232.3,320V278.72H242.4V320Z" style="vector-effect: none; opacity: 1; stroke-width: 0px; fill: rgb(239, 85, 59); fill-opacity: 1;"/></g><g class="point"><path d="M242.4,320V286.22H252.5V320Z" style="vector-effect: none; opacity: 1; stroke-width: 0px; fill: rgb(239, 85, 59); fill-opacity: 1;"/></g><g class="point"><path d="M252.5,320V301.23H262.6V320Z" style="vector-effect: none; opacity: 1; stroke-width: 0px; fill: rgb(239, 85, 59); fill-opacity: 1;"/></g><g class="point"><path d="M262.6,320V289.98H272.7V320Z" style="vector-effect: none; opacity: 1; stroke-width: 0px; fill: rgb(239, 85, 59); fill-opacity: 1;"/></g><g class="point"><path d="M272.7,320V304.99H282.8V320Z" style="vector-effect: none; opacity: 1; stroke-width: 0px; fill: rgb(239, 85, 59); fill-opacity: 1;"/></g><g class="point"><path d="M282.8,320V301.23H292.9V320Z" style="vector-effect: none; opacity: 1; stroke-width: 0px; fill: rgb(239, 85, 59); fill-opacity: 1;"/></g><g class="point"><path d="M292.9,320V304.99H303V320Z" style="vector-effect: none; opacity: 1; stroke-width: 0px; fill: rgb(239, 85, 59); fill-opacity: 1;"/></g><g class="point"><path d="M303,320V308.74H313.1V320Z" style="vector-effect: none; opacity: 1; stroke-width: 0px; fill: rgb(239, 85, 59); fill-opacity: 1;"/></g><g class="point"><path d="M313.1,320V304.99H323.2V320Z" style="vector-effect: none; opacity: 1; stroke-width: 0px; fill: rgb(239, 85, 59); fill-opacity: 1;"/></g><g class="point"><path d="M323.2,320V312.49H333.3V320Z" style="vector-effect: none; opacity: 1; stroke-width: 0px; fill: rgb(239, 85, 59); fill-opacity: 1;"/></g><g class="point"><path d="M333.3,320V316.25H343.4V320Z" style="vector-effect: none; opacity: 1; stroke-width: 0px; fill: rgb(239, 85, 59); fill-opacity: 1;"/></g><g class="point"><path d="M0,0Z" style="vector-effect: none; opacity: 1; stroke-width: 0px; fill: rgb(239, 85, 59); fill-opacity: 1;"/></g><g class="point"><path d="M0,0Z" style="vector-effect: none; opacity: 1; stroke-width: 0px; fill: rgb(239, 85, 59); fill-opacity: 1;"/></g><g class="point"><path d="M0,0Z" style="vector-effect: none; opacity: 1; stroke-width: 0px; fill: rgb(239, 85, 59); fill-opacity: 1;"/></g><g class="point"><path d="M0,0Z" style="vector-effect: none; opacity: 1; stroke-width: 0px; fill: rgb(239, 85, 59); fill-opacity: 1;"/></g><g class="point"><path d="M383.8,320V316.25H393.9V320Z" style="vector-effect: none; opacity: 1; stroke-width: 0px; fill: rgb(239, 85, 59); fill-opacity: 1;"/></g></g></g></g></g></g><g class="zerolinelayer-above"/><path class="xlines-above crisp" d="M0,0" style="fill: none;"/><path class="ylines-above crisp" d="M0,0" style="fill: none;"/><g class="overlines-above"/><g class="xaxislayer-above"><g class="xtick"><text text-anchor="middle" x="0" y="433" transform="translate(120.4,0)" style="font-family: 'Open Sans', verdana, arial, sans-serif; font-size: 12px; fill: rgb(42, 63, 95); fill-opacity: 1; white-space: pre;">10k</text></g><g class="xtick"><text text-anchor="middle" x="0" y="433" style="font-family: 'Open Sans', verdana, arial, sans-serif; font-size: 12px; fill: rgb(42, 63, 95); fill-opacity: 1; white-space: pre;" transform="translate(221.4,0)">20k</text></g><g class="xtick"><text text-anchor="middle" x="0" y="433" style="font-family: 'Open Sans', verdana, arial, sans-serif; font-size: 12px; fill: rgb(42, 63, 95); fill-opacity: 1; white-space: pre;" transform="translate(322.4,0)">30k</text></g><g class="xtick"><text text-anchor="middle" x="0" y="433" style="font-family: 'Open Sans', verdana, arial, sans-serif; font-size: 12px; fill: rgb(42, 63, 95); fill-opacity: 1; white-space: pre;" transform="translate(423.4,0)">40k</text></g></g><g class="yaxislayer-above"><g class="ytick"><text text-anchor="end" x="79" y="4.199999999999999" transform="translate(0,420)" style="font-family: 'Open Sans', verdana, arial, sans-serif; font-size: 12px; fill: rgb(42, 63, 95); fill-opacity: 1; white-space: pre;">0</text></g><g class="ytick"><text text-anchor="end" x="79" y="4.199999999999999" style="font-family: 'Open Sans', verdana, arial, sans-serif; font-size: 12px; fill: rgb(42, 63, 95); fill-opacity: 1; white-space: pre;" transform="translate(0,382.47)">0.01</text></g><g class="ytick"><text text-anchor="end" x="79" y="4.199999999999999" style="font-family: 'Open Sans', verdana, arial, sans-serif; font-size: 12px; fill: rgb(42, 63, 95); fill-opacity: 1; white-space: pre;" transform="translate(0,344.94)">0.02</text></g><g class="ytick"><text text-anchor="end" x="79" y="4.199999999999999" style="font-family: 'Open Sans', verdana, arial, sans-serif; font-size: 12px; fill: rgb(42, 63, 95); fill-opacity: 1; white-space: pre;" transform="translate(0,307.40999999999997)">0.03</text></g><g class="ytick"><text text-anchor="end" x="79" y="4.199999999999999" style="font-family: 'Open Sans', verdana, arial, sans-serif; font-size: 12px; fill: rgb(42, 63, 95); fill-opacity: 1; white-space: pre;" transform="translate(0,269.88)">0.04</text></g><g class="ytick"><text text-anchor="end" x="79" y="4.199999999999999" style="font-family: 'Open Sans', verdana, arial, sans-serif; font-size: 12px; fill: rgb(42, 63, 95); fill-opacity: 1; white-space: pre;" transform="translate(0,232.35)">0.05</text></g><g class="ytick"><text text-anchor="end" x="79" y="4.199999999999999" style="font-family: 'Open Sans', verdana, arial, sans-serif; font-size: 12px; fill: rgb(42, 63, 95); fill-opacity: 1; white-space: pre;" transform="translate(0,194.81)">0.06</text></g><g class="ytick"><text text-anchor="end" x="79" y="4.199999999999999" style="font-family: 'Open Sans', verdana, arial, sans-serif; font-size: 12px; fill: rgb(42, 63, 95); fill-opacity: 1; white-space: pre;" transform="translate(0,157.28)">0.07</text></g><g class="ytick"><text text-anchor="end" x="79" y="4.199999999999999" style="font-family: 'Open Sans', verdana, arial, sans-serif; font-size: 12px; fill: rgb(42, 63, 95); fill-opacity: 1; white-space: pre;" transform="translate(0,119.75)">0.08</text></g></g><g class="overaxes-above"/></g></g><g class="polarlayer"/><g class="smithlayer"/><g class="ternarylayer"/><g class="geolayer"/><g class="funnelarealayer"/><g class="pielayer"/><g class="iciclelayer"/><g class="treemaplayer"/><g class="sunburstlayer"/><g class="glimages"/><defs id="topdefs-1d460b"><g class="clips"/><clipPath id="legend1d460b"><rect width="196" height="48" x="0" y="0"/></clipPath></defs><g class="layer-above"><g class="imagelayer"/><g class="shapelayer"/></g><g class="infolayer"><g class="legend" pointer-events="all" transform="translate(492.08,100)"><rect class="bg" shape-rendering="crispEdges" style="stroke: rgb(68, 68, 68); stroke-opacity: 1; fill: rgb(255, 255, 255); fill-opacity: 1; stroke-width: 0px;" width="196" height="48" x="0" y="0"/><g class="scrollbox" transform="" clip-path="url(#legend1d460b)"><g class="groups"><g class="traces" transform="translate(0,14.5)" style="opacity: 1;"><text class="legendtext" text-anchor="start" x="40" y="4.680000000000001" style="font-family: 'Open Sans', verdana, arial, sans-serif; font-size: 12px; fill: rgb(42, 63, 95); fill-opacity: 1; white-space: pre;">Reference FOM</text><g class="layers" style="opacity: 0.75;"><g class="legendfill"/><g class="legendlines"/><g class="legendsymbols"><g class="legendpoints"><path class="legendundefined" d="M6,6H-6V-6H6Z" transform="translate(20,0)" style="stroke-width: 0px; fill: rgb(99, 110, 250); fill-opacity: 1;"/></g></g></g><rect class="legendtoggle" x="0" y="-9.5" width="190.578125" height="19" style="fill: rgb(0, 0, 0); fill-opacity: 0;"/></g><g class="traces" transform="translate(0,33.5)" style="opacity: 1;"><text class="legendtext" text-anchor="start" x="40" y="4.680000000000001" style="font-family: 'Open Sans', verdana, arial, sans-serif; font-size: 12px; fill: rgb(42, 63, 95); fill-opacity: 1; white-space: pre;">Surrogate (1 POD mode)</text><g class="layers" style="opacity: 0.75;"><g class="legendfill"/><g class="legendlines"/><g class="legendsymbols"><g class="legendpoints"><path class="legendundefined" d="M6,6H-6V-6H6Z" transform="translate(20,0)" style="stroke-width: 0px; fill: rgb(239, 85, 59); fill-opacity: 1;"/></g></g></g><rect class="legendtoggle" x="0" y="-9.5" width="190.578125" height="19" style="fill: rgb(0, 0, 0); fill-opacity: 0;"/></g></g></g><rect class="scrollbar" rx="20" ry="3" width="0" height="0" style="fill: rgb(128, 139, 164); fill-opacity: 1;" x="0" y="0"/></g><g class="g-gtitle"/><g class="g-xtitle"><g class="xtitle-math-group" pointer-events="none" data-unformatted="$||\psi||_{l^2}$" data-math="Y"><svg xmlns:xlink="http://www.w3.org/1999/xlink" width="5.617ex" height="18.046875" viewBox="0 -824.3 2418.5 1237.4" role="img" focusable="false" aria-hidden="true" style="vertical-align: -0.96ex; overflow: visible; pointer-events: none;" class="xtitle-math" preserveAspectRatio="xMinYMin meet" x="266.6826171875" y="449.07885627746583"><defs id="MathJax_SVG_glyphs"><path stroke-width="0" id="MJMAIN-7C" d="M139 -249H137Q125 -249 119 -235V251L120 737Q130 750 139 750Q152 750 159 735V-235Q151 -249 141 -249H139Z"/><path stroke-width="0" id="MJMATHI-3C8" d="M161 441Q202 441 226 417T250 358Q250 338 218 252T187 127Q190 85 214 61Q235 43 257 37Q275 29 288 29H289L371 360Q455 691 456 692Q459 694 472 694Q492 694 492 687Q492 678 411 356Q329 28 329 27T335 26Q421 26 498 114T576 278Q576 302 568 319T550 343T532 361T524 384Q524 405 541 424T583 443Q602 443 618 425T634 366Q634 337 623 288T605 220Q573 125 492 57T329 -11H319L296 -104Q272 -198 272 -199Q270 -205 252 -205H239Q233 -199 233 -197Q233 -192 256 -102T279 -9Q272 -8 265 -8Q106 14 106 139Q106 174 139 264T173 379Q173 380 173 381Q173 390 173 393T169 400T158 404H154Q131 404 112 385T82 344T65 302T57 280Q55 278 41 278H27Q21 284 21 287Q21 299 34 333T82 404T161 441Z"/><path stroke-width="0" id="MJMATHI-6C" d="M117 59Q117 26 142 26Q179 26 205 131Q211 151 215 152Q217 153 225 153H229Q238 153 241 153T246 151T248 144Q247 138 245 128T234 90T214 43T183 6T137 -11Q101 -11 70 11T38 85Q38 97 39 102L104 360Q167 615 167 623Q167 626 166 628T162 632T157 634T149 635T141 636T132 637T122 637Q112 637 109 637T101 638T95 641T94 647Q94 649 96 661Q101 680 107 682T179 688Q194 689 213 690T243 693T254 694Q266 694 266 686Q266 675 193 386T118 83Q118 81 118 75T117 65V59Z"/><path stroke-width="0" id="MJMAIN-32" d="M109 429Q82 429 66 447T50 491Q50 562 103 614T235 666Q326 666 387 610T449 465Q449 422 429 383T381 315T301 241Q265 210 201 149L142 93L218 92Q375 92 385 97Q392 99 409 186V189H449V186Q448 183 436 95T421 3V0H50V19V31Q50 38 56 46T86 81Q115 113 136 137Q145 147 170 174T204 211T233 244T261 278T284 308T305 340T320 369T333 401T340 431T343 464Q343 527 309 573T212 619Q179 619 154 602T119 569T109 550Q109 549 114 549Q132 549 151 535T170 489Q170 464 154 447T109 429Z"/></defs><g stroke="rgb(42, 63, 95)" fill="rgb(42, 63, 95)" stroke-width="0" transform="matrix(1 0 0 -1 0 0)"><use xlink:href="#MJMAIN-7C" x="0" y="0"/><use xlink:href="#MJMAIN-7C" x="278" y="0"/><use xlink:href="#MJMATHI-3C8" x="556" y="0"/><use xlink:href="#MJMAIN-7C" x="1207" y="0"/><g transform="translate(1485,0)"><use xlink:href="#MJMAIN-7C" x="0" y="0"/><g transform="translate(278,-301)"><use transform="scale(0.707)" xlink:href="#MJMATHI-6C" x="0" y="0"/><use transform="scale(0.548)" xlink:href="#MJMAIN-32" x="384" y="510"/></g></g></g></svg></g></g><g class="g-ytitle"><text class="ytitle" transform="rotate(-90,32.334375,260)" x="32.334375" y="260" text-anchor="middle" style="opacity: 1; font-family: 'Open Sans', verdana, arial, sans-serif; font-size: 14px; fill: rgb(42, 63, 95); fill-opacity: 1; white-space: pre;">Probability</text></g></g></svg>